<?xml version="1.0" standalone="no"?>
<!DOCTYPE svg PUBLIC "-//W3C//DTD SVG 20010904//EN"
 "http://www.w3.org/TR/2001/REC-SVG-20010904/DTD/svg10.dtd">
<svg version="1.0" xmlns="http://www.w3.org/2000/svg"
 width="1024.000000pt" height="1024.000000pt" viewBox="0 0 1024.000000 1024.000000"
 preserveAspectRatio="xMidYMid meet">

<g transform="translate(0.000000,1024.000000) scale(0.100000,-0.100000)"
fill="#000000" stroke="none">
<path d="M3905 7023 c-184 -26 -399 -125 -556 -257 -100 -85 -127 -97 -228
-106 -93 -7 -131 -22 -173 -67 -53 -56 -63 -139 -25 -214 12 -24 76 -111 141
-194 66 -82 123 -155 128 -161 4 -6 9 -66 12 -135 7 -199 46 -338 133 -478
164 -262 452 -423 757 -422 141 0 238 24 371 91 180 90 317 226 404 400 49 98
90 235 75 250 -8 8 -99 14 -171 11 -30 -1 -33 -5 -48 -58 -26 -91 -82 -188
-152 -263 -206 -223 -513 -281 -783 -149 -104 52 -227 168 -282 269 -214 388
-10 861 418 970 385 99 782 -190 822 -598 l7 -67 108 -3 c101 -3 109 -1 140
22 86 65 207 49 268 -35 10 -13 27 -67 37 -119 36 -179 102 -308 222 -434 187
-196 396 -288 655 -287 319 1 619 191 766 486 70 141 91 229 95 398 3 159 -12
126 160 342 129 163 144 188 144 250 0 116 -90 195 -223 195 -90 0 -142 21
-235 96 -245 196 -450 274 -722 274 -279 0 -507 -89 -736 -287 -109 -94 -146
-116 -236 -139 -133 -34 -242 2 -392 131 -189 162 -344 241 -554 281 -68 13
-273 17 -347 7z m382 -159 c162 -40 293 -114 453 -257 124 -111 235 -157 375
-157 138 0 257 50 380 161 237 212 430 287 712 276 240 -9 388 -70 620 -256
l82 -66 -85 -11 c-47 -7 -88 -14 -91 -17 -3 -3 -28 11 -57 32 -65 49 -191 112
-281 141 -100 32 -302 39 -411 15 -306 -68 -555 -297 -654 -600 -12 -38 -23
-71 -24 -72 -1 -1 -22 8 -47 20 -63 31 -214 32 -276 1 l-42 -21 -17 56 c-20
71 -85 201 -130 263 -56 76 -195 199 -279 247 -42 24 -123 60 -178 80 -101 36
-103 36 -267 36 -155 0 -170 -2 -245 -28 -93 -33 -189 -83 -262 -138 -45 -33
-55 -37 -81 -29 -17 4 -61 12 -99 16 l-67 7 39 34 c301 262 605 349 932 267z
m2031 -354 c224 -54 399 -217 478 -445 25 -71 28 -94 28 -205 0 -108 -4 -136
-27 -205 -88 -266 -349 -455 -626 -455 -183 1 -337 65 -467 194 -132 132 -197
289 -197 476 0 187 58 326 192 461 68 68 103 94 171 128 146 71 292 88 448 51z"/>
<path d="M6874 4843 c-508 -350 -557 -386 -581 -422 l-23 -35 2 -569 3 -569
28 -24 28 -24 465 0 466 0 29 29 29 29 0 882 0 881 -25 24 c-50 51 -62 45
-421 -202z"/>
<path d="M4690 4813 c-123 -87 -232 -170 -243 -185 -20 -27 -20 -41 -21 -691
-1 -715 -2 -702 51 -726 15 -7 108 -11 259 -11 l236 0 34 34 34 34 0 820 0
820 -26 31 c-20 25 -34 31 -63 31 -33 0 -69 -22 -261 -157z"/>
<path d="M5954 4261 c-32 -21 -139 -95 -237 -164 l-179 -125 -111 77 c-62 43
-123 83 -135 90 -29 15 -65 8 -92 -19 -19 -19 -20 -35 -20 -441 l0 -421 29
-29 29 -29 411 0 410 0 28 24 28 24 3 499 c3 494 2 500 -18 526 -31 39 -73 36
-146 -12z"/>
<path d="M3082 4064 l-22 -15 0 -410 c0 -396 1 -410 20 -429 11 -11 31 -20 45
-20 14 0 34 9 45 20 19 19 20 33 20 425 0 392 -1 406 -20 425 -24 24 -57 26
-88 4z"/>
<path d="M3972 3773 c-682 -461 -665 -448 -648 -516 13 -55 28 -57 465 -57
230 0 410 4 425 10 14 5 33 21 43 37 16 25 18 55 18 321 l0 294 -24 19 c-49
40 -77 28 -279 -108z"/>
</g>
</svg>
